<?xml version="1.0" standalone="no"?>
<!DOCTYPE svg PUBLIC "-//W3C//DTD SVG 20010904//EN"
 "http://www.w3.org/TR/2001/REC-SVG-20010904/DTD/svg10.dtd">
<svg version="1.0" xmlns="http://www.w3.org/2000/svg"
 width="300.000000pt" height="300.000000pt" viewBox="0 0 300.000000 300.000000"
 preserveAspectRatio="xMidYMid meet">
<metadata>
Created by potrace 1.14, written by Peter Selinger 2001-2017
</metadata>
<g transform="translate(0.000000,300.000000) scale(0.100000,-0.100000)"
fill="#000000" stroke="none">
<path d="M1470 2969 c-14 -12 -43 -37 -65 -57 -22 -21 -58 -52 -79 -71 l-39
-33 -96 8 c-53 4 -125 8 -161 8 l-64 1 -35 -82 -35 -83 -211 -2 -210 -3 -5
-94 -5 -93 -102 -40 -102 -39 13 -38 c8 -20 23 -69 34 -109 l20 -71 -59 -75
c-32 -42 -59 -78 -59 -81 0 -3 37 -56 83 -118 45 -61 92 -126 104 -142 l21
-31 -104 -174 c-57 -96 -104 -178 -104 -183 0 -4 29 -22 65 -39 72 -36 72 -36
55 -129 -5 -30 -12 -69 -15 -88 -3 -19 -8 -37 -10 -41 -6 -10 13 -33 30 -36
77 -11 152 -26 162 -32 6 -4 26 -63 43 -132 18 -69 38 -130 44 -136 6 -6 53
-23 105 -37 51 -15 95 -28 97 -30 5 -4 20 -91 28 -156 3 -24 7 -45 9 -47 3 -3
88 -13 162 -19 22 -1 43 -3 47 -4 3 -1 31 -39 62 -85 l56 -83 73 0 c39 -1 79
-1 88 -2 8 0 53 -60 98 -131 46 -72 87 -129 91 -128 5 2 45 59 90 128 45 69
84 127 86 129 2 2 43 5 90 6 47 0 88 5 92 11 4 5 28 42 54 82 26 40 51 72 55
72 5 1 24 3 43 5 19 2 65 7 102 10 75 7 70 -1 84 131 3 34 10 67 13 73 4 7 51
24 105 40 53 15 100 32 105 37 5 5 19 50 31 99 41 172 37 163 78 174 31 8 115
22 145 25 19 2 23 31 11 86 -6 32 -15 85 -19 117 l-6 58 66 33 c40 19 65 38
62 45 -2 7 -48 86 -102 177 -54 91 -98 170 -98 175 0 6 45 72 101 147 56 75
102 138 102 141 0 2 -27 40 -60 82 -39 50 -59 84 -55 94 15 39 58 201 54 204
-2 2 -47 20 -99 39 l-95 36 0 94 0 93 -216 3 -216 2 -33 78 c-33 80 -48 104
-59 98 -7 -4 -83 -13 -196 -22 -44 -3 -83 -8 -86 -10 -5 -3 -79 54 -99 76 -13
14 -127 110 -131 110 -2 -1 -15 -10 -29 -21z m30 -899 c6 0 11 162 12 441 l3
441 92 -81 92 -82 -20 -47 c-47 -107 -58 -141 -49 -147 6 -4 15 6 20 21 46
119 72 170 88 170 19 1 168 14 224 19 l37 4 -76 -117 c-252 -387 -314 -485
-308 -490 9 -9 24 11 109 143 224 346 289 445 295 445 4 0 17 -27 30 -60 41
-103 22 -95 240 -94 105 0 191 0 191 -1 0 -2 -43 -31 -95 -65 -52 -34 -95 -69
-95 -77 0 -8 42 15 105 57 57 38 107 70 110 70 3 0 5 -38 5 -83 l0 -84 89 -33
c50 -19 88 -37 85 -42 -3 -4 -50 -33 -104 -64 -55 -31 -100 -60 -100 -65 0
-15 8 -11 112 47 55 31 101 54 103 52 2 -2 -7 -41 -21 -88 -13 -46 -24 -87
-24 -91 0 -4 25 -39 55 -77 l55 -71 -72 -21 c-40 -12 -91 -27 -113 -35 -22 -7
-136 -41 -253 -75 -128 -38 -209 -67 -204 -72 6 -6 105 19 248 62 360 108 367
110 372 105 2 -2 -35 -56 -83 -120 -47 -65 -89 -123 -92 -130 -2 -8 37 -85 88
-172 50 -87 94 -161 96 -165 2 -4 -18 2 -44 13 -26 12 -84 36 -128 54 -44 18
-206 84 -360 148 -154 64 -287 117 -295 119 -20 4 -17 -11 27 -152 52 -169
117 -300 186 -375 37 -40 106 -153 180 -297 l77 -147 -103 46 c-263 117 -297
130 -303 122 -5 -9 28 -26 264 -129 67 -30 119 -57 115 -60 -5 -4 -44 -17 -88
-30 -44 -12 -83 -27 -86 -33 -6 -8 -10 -37 -23 -159 -2 -21 -24 -3 -141 119
-117 122 -146 147 -145 126 1 -5 59 -69 130 -143 70 -74 127 -136 126 -138 -2
-1 -28 -5 -57 -7 -136 -12 -130 -9 -178 -85 -24 -39 -47 -70 -51 -70 -5 0 -34
64 -65 143 -31 78 -61 146 -66 151 -23 25 -13 -11 41 -149 33 -83 60 -154 60
-160 0 -6 -31 -10 -76 -9 l-76 1 -76 -115 -77 -115 -3 277 c-1 172 -6 276 -12
276 -6 0 -10 -102 -10 -277 -1 -253 -2 -276 -16 -258 -9 11 -44 63 -78 115
l-61 95 -60 1 c-33 1 -69 2 -81 3 -20 1 -17 11 42 156 34 85 58 157 53 160
-10 7 -12 4 -83 -174 l-53 -133 -48 73 c-26 41 -49 75 -50 77 -2 3 -36 7 -130
17 -32 3 -60 7 -61 8 -2 1 55 63 126 137 71 74 129 138 130 143 1 21 -30 -5
-146 -128 -71 -74 -130 -132 -133 -129 -3 3 -7 17 -8 32 -8 61 -23 145 -26
148 -2 2 -43 14 -90 26 -48 13 -87 25 -87 29 0 3 60 32 133 64 243 107 259
114 252 125 -3 6 -9 8 -13 6 -19 -11 -375 -166 -382 -166 -5 0 11 35 34 77 24
43 62 116 86 163 25 47 80 132 123 190 44 58 93 132 110 165 35 71 129 353
121 366 -3 5 -22 2 -42 -7 -20 -9 -84 -35 -142 -59 -265 -109 -646 -267 -653
-272 -12 -7 2 19 99 183 46 78 84 146 84 151 0 5 -43 66 -95 136 -52 70 -92
127 -88 127 3 0 143 -41 311 -90 271 -81 330 -95 309 -74 -3 3 -111 37 -239
76 -128 38 -270 80 -316 94 l-84 25 34 42 c19 23 44 57 57 75 l22 32 -25 89
c-14 50 -26 92 -26 95 0 2 46 -22 102 -55 57 -32 106 -59 110 -59 27 0 -6 26
-97 77 -57 32 -105 60 -105 63 0 3 40 21 90 39 l89 34 3 85 3 84 80 -53 c44
-29 92 -61 108 -71 21 -15 27 -16 27 -5 0 8 -43 42 -95 76 -52 34 -95 63 -95
64 0 2 86 3 191 2 218 0 199 -7 240 95 13 33 27 60 30 60 4 0 53 -71 109 -157
56 -87 141 -218 188 -292 77 -119 102 -149 102 -123 0 4 -85 139 -190 301
l-191 294 48 -7 c26 -3 86 -9 133 -13 47 -3 90 -10 97 -15 6 -5 26 -46 44 -91
33 -85 45 -105 55 -95 3 3 -13 49 -34 102 l-40 95 91 82 92 81 3 -441 c1 -279
6 -441 12 -441z m-454 -442 c-69 -223 -112 -307 -231 -454 -22 -27 -81 -127
-130 -222 -50 -94 -93 -168 -96 -164 -4 4 -19 58 -34 120 -23 94 -31 113 -49
117 -11 3 -52 11 -91 18 l-70 13 54 40 c30 21 120 85 200 142 81 56 188 132
239 168 81 57 109 85 85 84 -5 0 -138 -93 -296 -205 -158 -113 -290 -205 -292
-205 -2 0 -2 10 0 23 26 143 33 193 29 199 -3 5 -30 21 -61 36 l-55 29 333
138 c184 76 363 150 399 166 36 15 70 28 77 28 8 1 4 -23 -11 -71z m1286 -87
c212 -87 393 -163 402 -168 13 -7 4 -15 -43 -37 -47 -23 -58 -33 -56 -50 14
-99 26 -174 31 -190 6 -19 6 -19 -25 0 -17 10 -150 103 -295 207 -145 103
-267 187 -270 187 -25 0 24 -39 232 -186 130 -92 261 -186 291 -209 l54 -40
-69 -13 c-38 -7 -78 -14 -89 -16 -17 -2 -25 -23 -50 -119 -16 -64 -32 -118
-35 -121 -3 -3 -21 25 -40 62 -102 197 -148 275 -209 357 -86 113 -123 179
-161 284 -42 117 -69 211 -61 211 4 0 181 -72 393 -159z"/>
<path d="M687 2359 c-48 -45 -87 -89 -87 -98 0 -16 39 -141 46 -150 2 -2 25
20 51 50 27 29 57 63 68 75 55 60 130 147 130 151 0 4 -112 53 -120 53 0 0
-40 -36 -88 -81z"/>
<path d="M2164 2417 c-28 -12 -52 -26 -52 -32 0 -11 22 -38 132 -158 43 -48
84 -95 91 -104 8 -10 16 -16 18 -13 3 3 16 41 29 84 l23 79 -89 83 c-49 46
-92 84 -95 83 -3 0 -29 -10 -57 -22z"/>
<path d="M940 2339 c1 -18 430 -303 430 -285 0 7 -84 69 -187 138 -264 175
-243 162 -243 147z"/>
<path d="M1835 2203 c-121 -80 -214 -148 -207 -151 7 -2 104 56 214 129 110
74 205 137 210 140 6 4 9 12 7 18 -2 6 -103 -55 -224 -136z"/>
<path d="M846 2231 c-4 -6 -4 -16 -1 -21 4 -6 22 -49 40 -96 l34 -85 -52 29
c-29 16 -66 38 -84 48 -17 10 -35 15 -39 11 -9 -9 -15 -5 96 -70 52 -31 99
-52 103 -48 7 7 -67 216 -83 234 -4 5 -11 4 -14 -2z"/>
<path d="M2137 2228 c-61 -150 -87 -222 -80 -229 5 -5 51 17 103 48 112 66
105 61 96 70 -4 4 -22 -1 -39 -11 -18 -10 -55 -32 -84 -48 l-52 -29 39 97 c23
56 36 102 31 107 -5 5 -11 3 -14 -5z"/>
<path d="M1015 1970 c-3 -6 5 -15 18 -21 13 -6 35 -34 50 -65 17 -33 34 -54
44 -55 10 -1 31 -3 46 -5 15 -1 45 3 66 11 75 26 82 60 -106 -510 -42 -126
-82 -248 -88 -271 l-13 -41 84 -129 85 -129 298 0 299 0 86 131 86 131 -16 44
c-8 24 -69 208 -134 408 -80 242 -116 367 -109 372 6 3 31 1 54 -7 54 -16 115
-9 133 14 8 9 21 34 29 55 9 23 26 42 40 48 13 5 22 13 18 18 -3 6 -41 -6 -88
-26 -45 -19 -114 -49 -153 -65 l-71 -29 58 -181 c45 -139 56 -185 47 -195 -6
-8 -71 -48 -145 -89 l-134 -76 -133 76 c-73 42 -139 82 -145 90 -9 11 1 51 45
187 31 96 58 177 60 180 2 4 -29 20 -69 37 -39 17 -109 46 -154 66 -46 20 -85
31 -88 26z m235 -615 l0 -70 120 -95 120 -95 -3 -43 -2 -44 -122 -70 -122 -70
-88 72 c-48 40 -89 76 -91 80 -2 5 29 105 68 224 l71 216 24 -18 c22 -15 24
-25 25 -87z m620 -111 c39 -119 69 -220 68 -225 -3 -8 -174 -149 -181 -149 -2
0 -58 31 -123 69 l-119 69 -2 43 -3 44 120 95 120 95 0 71 c0 63 3 73 23 87
12 9 23 16 24 16 1 1 34 -96 73 -215z m-239 -329 l131 -75 57 48 c31 27 62 52
69 56 12 7 -38 -75 -84 -138 l-20 -28 -250 0 c-137 0 -265 1 -285 1 -34 1 -39
6 -94 89 -32 48 -52 82 -44 76 8 -6 40 -31 72 -57 l58 -46 127 74 c70 41 128
75 130 75 1 0 62 -34 133 -75z"/>
<path d="M1374 1818 c-7 -11 -10 -10 46 -33 68 -28 70 -32 70 -97 0 -37 4 -57
10 -53 6 3 10 32 10 63 l0 57 60 25 c33 14 60 31 60 37 0 9 -19 4 -57 -13 -63
-28 -87 -27 -153 5 -24 11 -42 15 -46 9z"/>
</g>
</svg>
