<svg id="Layer_1" data-name="Layer 1" xmlns="http://www.w3.org/2000/svg" viewBox="0 0 2600 3002"><defs><style>.cls-1{fill:#231f20;}</style></defs><title>Taran_logo_black</title><polygon class="cls-1" points="1166.97 1193.2 1289.43 1246.34 1289.43 1365.38 1310.57 1365.38 1310.57 1246.34 1433.04 1193.2 1424.62 1173.8 1300 1227.88 1175.38 1173.8 1166.97 1193.2"/><path class="cls-1" d="M1176.94,938.48l-11.56,17.69C1100.67,913.88,1035.18,869.75,972,827c-77.39-52.16-157.4-106.15-238.18-158.17L748,653c80,51.52,159.16,104.89,235.72,156.55C1047,852.13,1112.37,896.26,1176.94,938.48Z"/><polygon class="cls-1" points="573.39 561.07 395.15 728.84 445.44 896.61 701.33 611.76 573.39 561.07"/><path class="cls-1" d="M750,996.07a10.66,10.66,0,0,1-3.52,7.89,9.18,9.18,0,0,1-1.34,1.06,11.5,11.5,0,0,1-4.51,1.62h-.07c-.35,0-.78.07-1.13.07a8.74,8.74,0,0,1-1.41-.14h-.07a9.62,9.62,0,0,1-3.1-.92c-42.51-20-81-43.84-118.28-67-26.36-16.35-53.5-33.13-81.77-48.36l14.52-16.14c27.21,14.8,53.08,30.88,78.39,46.52,29.18,18.12,59.14,36.66,91,53.29-.28-1.26-.57-2.46-.71-3.52-8.67-22.42-16.77-44.2-24.67-65.41-12.12-32.36-36.16-92.49-52.58-132.66l15.72-17.49C672.87,795,700.57,864,713.12,897.67c8.81,23.68,17.83,47.93,27.56,73,2.18,5,4.86,12,8.6,21.64A9.85,9.85,0,0,1,750,996.07Z"/><path class="cls-1" d="M1525.47,1154.57c21.38,7.56,60.48,20.78,75.86,22.07,25.65,2.15,69.89-2,82-6.81s56.39-87.28,58-104.24c.18-1.86.34-3.44.48-4.91l45.37-19.69-8.41-19.4-305.42,132.54,119.35,365.69-61.59,43.77L1300,1693.19l-231.11-129.6-61.59-43.77,119.35-365.69L821.22,1021.59l-8.41,19.4,45.37,19.69c.15,1.47.3,3,.49,4.91,1.66,17,46,99.41,58.05,104.24s56.31,9,82,6.81c15.38-1.29,54.48-14.51,75.86-22.07l26,11.3L832.12,1988.39,1002.22,2246h595.56l170.11-257.65-268.46-822.52Zm-214.9,770.9h0v-17.18l232.88-189.21,3.9-3.17V1578l52.22-37.12,144.36,442.3-186.86,151.09-246.51-143ZM1052.64,1578v137.92l3.91,3.17,232.88,189.21v83l-246.5,143L856.06,1983.18l144.36-442.3Zm533.76,646.9H1013.6L890.19,2038,1041,2159.87l259-150.24,259.06,150.24L1709.81,2038Z"/><path class="cls-1" d="M1866.18,668.93c-80.71,52-160.79,105.94-238.11,158.1-63.3,42.72-128.72,86.85-193.42,129.14L1423,938.48c64.64-42.22,130-86.35,193.22-128.93,76.55-51.66,155.71-104.95,235.64-156.48Z"/><polygon class="cls-1" points="2204.85 728.84 2026.62 561.07 1898.68 611.76 2154.56 896.61 2204.85 728.84"/><path class="cls-1" d="M2065.17,890.4c-28.27,15.16-55.33,31.94-81.7,48.29-37.28,23-75.77,46.95-118.28,67a11.49,11.49,0,0,1-3,.92,12.5,12.5,0,0,1-1.62.14c-.35,0-.7-.07-1.06-.07a11.18,11.18,0,0,1-4.93-1.76v-.07a9.35,9.35,0,0,1-1-.78,10.52,10.52,0,0,1-2.89-11.7c3.74-9.73,6.42-16.7,8.6-21.71,9.73-25,18.75-49.34,27.56-73,12.62-33.84,40.53-102.43,57-142.25l15.65,17.41c-16.43,40-40.67,99.67-52.8,132.24-7.89,21.21-16,43-24.67,65.48-.14,1-.42,2.19-.7,3.45,31.79-16.63,61.81-35.17,91-53.29,25.23-15.64,51.1-31.64,78.24-46.52Z"/><path class="cls-1" d="M2381,1275.07l207-282.89-.05,0a10.41,10.41,0,0,0,1.58-3,10.58,10.58,0,0,0-1.69-9.7L2470.7,827.62l63.32-208-.08,0a10.29,10.29,0,0,0-6.26-12.93l-195.81-74.84,4-181.85s-2.16-7.67-14.76-7.13H1905.59L1831.11,173l-.1,0a8.8,8.8,0,0,0-.54-1.27,10.55,10.55,0,0,0-10-5.06l-305.92,28.54L1307,12.4l0,0a11.09,11.09,0,0,0-1.39-.91,11,11,0,0,0-1.17-.74l0,0a10.09,10.09,0,0,0-1.3-.37,10.43,10.43,0,0,0-1.54-.45,11,11,0,0,0-1.72,0,10.75,10.75,0,0,0-1.27,0,10.31,10.31,0,0,0-1.93.55c-.31.11-.64.13-.94.27a.05.05,0,0,1,0,0,10.05,10.05,0,0,0-1.26.82,10.72,10.72,0,0,0-1.3.84l0,0L1085.49,195.25,779.56,166.71a10.52,10.52,0,0,0-10,5.06A11.8,11.8,0,0,0,769,173l-.1,0L694.42,342.89H278.88c-8.08-.12-8.91,5.73-7.88,17.47l-2.59,171.41L72.33,606.71a10.55,10.55,0,0,0-6.77,9.06,10.27,10.27,0,0,0,.51,3.87l-.08,0,63.31,208L12.2,979.48a10.58,10.58,0,0,0-1.69,9.7,10.41,10.41,0,0,0,1.58,3l-.05,0,207,282.89L11.46,1628a10.55,10.55,0,0,0,1.14,12.3,10.16,10.16,0,0,0,3.27,2.43l0,.09L145,1707.66l-39.38,242.42a10.28,10.28,0,0,0,8.51,12v.09l195.12,36.26,65.63,267a11.17,11.17,0,0,0,.49,1.25c.13.32.22.65.38,1a10.54,10.54,0,0,0,1.48,2.19c.08.09.12.2.2.29l.05,0c.16.17.34.29.5.44a10.7,10.7,0,0,0,1.47,1.16c.24.16.5.29.76.43a11.87,11.87,0,0,0,1.6.69c.17.06.31.16.48.21L591.57,2332l28.77,200.38h.08a10.12,10.12,0,0,0,9.44,9l207.91,18.63,108.72,162.6h0l0,.06a10.56,10.56,0,0,0,8.75,4.64h167.6l168.24,260c.08.12.19.2.27.31a9,9,0,0,0,.62.74,10.76,10.76,0,0,0,1.53,1.49,9.34,9.34,0,0,0,.82.58,10.93,10.93,0,0,0,2.15,1c.18.06.31.18.5.24l.19,0a10.14,10.14,0,0,0,2.8.41,10.61,10.61,0,0,0,2.81-.41l.18,0c.18-.06.32-.18.49-.24a10.74,10.74,0,0,0,2.16-1,7.91,7.91,0,0,0,.81-.58,10.59,10.59,0,0,0,1.56-1.51c.2-.23.41-.45.59-.7s.2-.2.28-.33l168.25-260h167.59a10.58,10.58,0,0,0,8.76-4.64s0,0,0-.06h0l108.72-162.6,207.91-18.63a10.11,10.11,0,0,0,9.45-9h.07L2008.44,2332l209.34-58.89c.17-.05.31-.15.47-.21a11.47,11.47,0,0,0,1.61-.69c.26-.14.51-.27.76-.43a10,10,0,0,0,1.46-1.16,5.24,5.24,0,0,0,.5-.44l.06,0c.08-.09.12-.2.2-.3a10.17,10.17,0,0,0,1.47-2.18,10.33,10.33,0,0,0,.39-1,8.84,8.84,0,0,0,.48-1.24l65.64-267,195.12-36.26,0-.09a10.47,10.47,0,0,0,3.67-1.33,10.58,10.58,0,0,0,4.85-10.67l-39.38-242.42,129.11-64.83,0-.09a10.16,10.16,0,0,0,3.27-2.43,10.55,10.55,0,0,0,1.14-12.3ZM319.76,1978.89l-177.29-33L734,1525.63l-12.26-17.23L130.49,1928.51l36.58-225.13a10.57,10.57,0,0,0-5.7-11.14L46,1634.3l825-341.71c-16.06,55.44-61.29,207.64-99.78,300-47.07,113-194.71,285.12-196.2,286.85l8,6.9-9.36-4.92-185,351.9L328.1,1986.76A10.57,10.57,0,0,0,319.76,1978.89Zm1676.33,334.63a10.56,10.56,0,0,0-7.6,8.68l-26.67,185.71-267.94-279.76-15.27,14.62,267.74,279.56-191,17.12a10.61,10.61,0,0,0-7.85,4.65l-100.38,150.13-126.31-315-19.63,7.88,127.95,319.09H1471.38a10.57,10.57,0,0,0-8.88,4.82l-151.93,234.76V2383.18h-21.14v562.61L1137.51,2711a10.56,10.56,0,0,0-8.88-4.83H970.92l127.94-319.09-19.63-7.88-126.3,315L852.55,2544.1a10.61,10.61,0,0,0-7.85-4.65l-191.05-17.12L921.4,2242.77l-15.27-14.62L638.19,2507.91,611.52,2322.2a10.56,10.56,0,0,0-7.6-8.68l-187.65-52.79,405-178.82-8.54-19.34L408.56,2241l183.3-348.71c12.79-14.92,151.76-178.46,198.89-291.57,48-115.14,106-321.38,106.64-323.46a10.57,10.57,0,0,0-14.23-12.62L45.69,1611.53,240.76,1279.8a10.59,10.59,0,0,0-.58-11.61L47.67,1005.07,679,1193.63l6-20.26L38.34,980.21l111-144a10.57,10.57,0,0,0,1.75-9.54L94,639l218.6,125.08,10.51-18.36L100.72,618.5,282.65,549a10.59,10.59,0,0,0,6.8-9.72l2.47-163.74c59,41.08,117.27,78.94,173.82,115.64q20,13,39.91,25.94l11.56-17.72q-19.92-13-40-26c-53.7-34.85-109-70.73-164.81-109.37H701.33a10.59,10.59,0,0,0,9.69-6.33l69.37-158.27,392.35,604,17.73-11.52L799.35,189.8l282.35,26.34,79.7,194.44,19.56-8-79.27-193.4L1289.43,43.74V932.82h21.14V43.74l187.75,165.42-79.27,193.4,19.56,8,79.7-194.44,282.35-26.34L1409.53,791.88l17.74,11.52,392.34-604L1889,357.71a10.59,10.59,0,0,0,9.69,6.33h388.89c-55.84,38.64-111.11,74.52-164.81,109.37q-20.06,13-40,26l11.55,17.72q19.88-13,39.92-25.94c58.52-38,118.91-77.22,180-120l-3.71,167.68a10.57,10.57,0,0,0,6.8,10.11l181.93,69.53L2276.93,745.72l10.5,18.36L2506,639l-57.15,187.67a10.57,10.57,0,0,0,1.74,9.54l111,144L1915,1173.37l6.06,20.26,631.31-188.56-192.5,263.12a10.59,10.59,0,0,0-.58,11.61l195.06,331.73-837.46-346.86a10.57,10.57,0,0,0-14.23,12.62c.59,2.08,58.66,208.32,106.64,323.45,47.13,113.12,186.1,276.66,198.89,291.58L2191.45,2241l-404.19-178.46-8.54,19.34,405,178.82Zm436.85-610.14,36.57,225.13L1878.25,1508.4,1866,1525.63l591.54,420.31-177.29,33a10.56,10.56,0,0,0-8.34,7.87l-60.61,246.58-185-351.9-9.36,4.92,8-6.9c-1.49-1.73-149.12-173.84-196.2-286.85-38.49-92.37-83.72-244.58-99.77-300l825,341.71-115.39,57.94A10.56,10.56,0,0,0,2432.94,1703.38Z"/></svg>